<?xml version="1.0" encoding="UTF-8"?>
<svg width="99px" height="40px" viewBox="0 0 99 40" version="1.1" xmlns="http://www.w3.org/2000/svg" xmlns:xlink="http://www.w3.org/1999/xlink">
    <!-- Generator: sketchtool 59.1 (101010) - https://sketch.com -->
    <title>B2FBF246-0C97-4907-8D45-742532A4C8D5</title>
    <desc>Created with sketchtool.</desc>
    <g id="Asset-Artboard-Page" stroke="none" stroke-width="1" fill="none" fill-rule="evenodd">
        <g id="Logo" transform="translate(0.498645, 0.000000)" fill-rule="nonzero">
            <g id="/mako" transform="translate(-0.034180, 8.177246)">
                <polygon id="/" fill="#F99C03" points="0 29.0698242 8.44238281 0 10.5957031 0 2.10205078 29.0698242"></polygon>
                <path d="M35.2050781,25.8227539 L35.2050781,14.5605469 C35.2050781,12.7148345 34.9544296,11.453047 34.453125,10.7751465 C33.9518204,10.097246 33.0802471,9.75830078 31.8383789,9.75830078 C30.3572517,9.75830078 29.2065471,10.2168737 28.3862305,11.1340332 C27.5659139,12.0511927 27.1557617,13.341463 27.1557617,15.0048828 L27.1557617,25.8227539 L24.0283203,25.8227539 L24.0283203,14.5605469 C24.0283203,12.7148345 23.7776718,11.453047 23.2763672,10.7751465 C22.7750626,10.097246 21.9091858,9.75830078 20.6787109,9.75830078 C19.208977,9.75830078 18.0582724,10.2225702 17.2265625,11.151123 C16.3948526,12.0796759 15.9790039,13.3642496 15.9790039,15.0048828 L15.9790039,25.8227539 L12.902832,25.8227539 L12.902832,7.51953125 L15.8422852,7.51953125 L15.8422852,10.1000977 C16.5258823,9.0747019 17.3347935,8.31136318 18.269043,7.81005859 C19.2032924,7.308754 20.2970315,7.05810547 21.550293,7.05810547 C22.6896216,7.05810547 23.6637329,7.28881605 24.4726562,7.75024414 C25.2815796,8.21167223 25.9765596,8.93798333 26.5576172,9.92919922 C27.3551472,8.93798333 28.2267205,8.21167223 29.1723633,7.75024414 C30.118006,7.28881605 31.2060485,7.05810547 32.4365234,7.05810547 C33.6214252,7.05810547 34.6525021,7.27172638 35.5297852,7.69897461 C36.4070682,8.12622284 37.079262,8.74429934 37.5463867,9.55322266 C37.8084323,10.0203474 37.9964187,10.57861 38.1103516,11.2280273 C38.2242844,11.8774447 38.28125,12.902825 38.28125,14.3041992 L38.28125,25.8227539 L35.2050781,25.8227539 Z M54.2431641,23.3789062 C53.286128,24.3815154 52.2692925,25.133461 51.192627,25.6347656 C50.1159614,26.1360702 48.9738016,26.3867188 47.7661133,26.3867188 C45.8976144,26.3867188 44.4392956,25.8996631 43.3911133,24.9255371 C42.342931,23.9514111 41.8188477,22.6041753 41.8188477,20.8837891 C41.8188477,19.2203693 42.3343861,17.9158576 43.3654785,16.9702148 C44.3965709,16.0245721 45.9659725,15.4150404 48.0737305,15.1416016 L50.8011649,14.8427961 C52.0348414,14.704475 52.8061915,14.5705166 53.1152344,14.440918 C53.4684262,14.3041985 53.7019851,14.124757 53.815918,13.9025879 C53.9298508,13.6804188 53.9868164,13.1990597 53.9868164,12.4584961 C53.9868164,11.5242466 53.6450229,10.82357 52.9614258,10.3564453 C52.2778286,9.88932058 51.2467517,9.65576172 49.8681641,9.65576172 C48.4440033,9.65576172 47.3702022,9.9405896 46.6467285,10.5102539 C45.9232548,11.0799182 45.5615234,11.9230087 45.5615234,13.0395508 L42.65625,13.0395508 L42.65625,12.902832 C42.65625,11.0571197 43.3056576,9.59880093 44.6044922,8.52783203 C45.9033268,7.45686313 47.6920459,6.92138672 49.9707031,6.92138672 C52.4202596,6.92138672 54.2232201,7.37995961 55.3796387,8.29711914 C56.5360572,9.21427867 57.1142578,10.6469629 57.1142578,12.5952148 L57.1142578,21.7553711 C57.1142578,22.5415078 57.1997062,23.0485015 57.3706055,23.2763672 C57.5415048,23.5042329 57.8491189,23.6181641 58.293457,23.6181641 C58.3846033,23.6181641 58.4956862,23.6096192 58.626709,23.5925293 L58.9229327,23.5469564 C58.9779999,23.5374621 59.0359155,23.5270183 59.0966797,23.515625 L59.0966797,25.8911133 C58.7207012,25.9936529 58.3931492,26.0648598 58.1140137,26.1047363 C57.8348782,26.1446128 57.5699882,26.1645508 57.3193359,26.1645508 C56.2939402,26.1645508 55.5249049,25.942385 55.012207,25.4980469 C54.4995092,25.0537087 54.2431641,24.3815149 54.2431641,23.4814453 L54.2431641,23.3789062 Z M53.9526367,16.5087891 C53.1835899,16.9253561 51.8988597,17.2568027 50.0984113,17.5031374 L49.0112675,17.6465989 C48.6525594,17.6955541 48.3628348,17.7378335 48.1420898,17.7734375 C47.0255478,17.9557301 46.2223332,18.2861304 45.7324219,18.7646484 C45.2425106,19.2431665 44.9975586,19.9381465 44.9975586,20.8496094 C44.9975586,21.7610723 45.2823865,22.4617489 45.8520508,22.9516602 C46.4217151,23.4415715 47.2363228,23.6865234 48.2958984,23.6865234 C49.9479249,23.6865234 51.3037056,23.2706747 52.3632812,22.4389648 C53.4228569,21.607255 53.9526367,20.5419987 53.9526367,19.2431641 L53.9526367,16.5087891 Z M61.9335938,25.8227539 L61.9335938,0.649414062 L65.0097656,0.649414062 L65.0097656,15.7397461 L73.28125,7.51953125 L77.1606445,7.51953125 L70.3076172,14.2016602 L77.0581055,25.8227539 L73.5888672,25.8227539 L68.2397461,16.3378906 L65.0097656,19.4482422 L65.0097656,25.8227539 L61.9335938,25.8227539 Z M82.2363281,16.6455078 C82.2363281,18.9127718 82.7233838,20.6473735 83.6975098,21.8493652 C84.6716357,23.0513569 86.0644441,23.6523438 87.8759766,23.6523438 C89.6761158,23.6523438 91.0546827,23.0513569 92.0117188,21.8493652 C92.9687548,20.6473735 93.4472656,18.9127718 93.4472656,16.6455078 C93.4472656,14.3896372 92.9687548,12.6607319 92.0117188,11.4587402 C91.0546827,10.2567485 89.6761158,9.65576172 87.8759766,9.65576172 C86.0530508,9.65576172 84.6573942,10.2539003 83.6889648,11.4501953 C82.7205355,12.6464904 82.2363281,14.3782439 82.2363281,16.6455078 Z M79.0917969,16.6455078 C79.0917969,13.5807138 79.8579839,11.1938562 81.3903809,9.48486328 C82.9227778,7.77587036 85.0732283,6.92138672 87.8417969,6.92138672 C90.6217587,6.92138672 92.780754,7.77302208 94.3188477,9.47631836 C95.8569413,11.1796146 96.6259766,13.5693206 96.6259766,16.6455078 C96.6259766,19.7216951 95.8597896,22.1142493 94.3273926,23.8232422 C92.7949956,25.5322351 90.6445451,26.3867188 87.8759766,26.3867188 C85.0960147,26.3867188 82.9370194,25.5350834 81.3989258,23.8317871 C79.8608322,22.1284908 79.0917969,19.7330884 79.0917969,16.6455078 Z" id="mako" fill="#013A51"></path>
            </g>
        </g>
    </g>
</svg>